<svg aria-hidden="true" style="position: absolute; width: 0; height: 0; overflow: hidden;" version="1.1" xmlns="http://www.w3.org/2000/svg" xmlns:xlink="http://www.w3.org/1999/xlink">
<defs>
<symbol id="icon-facebook" viewBox="0 0 18 18">
<path fill-rule="evenodd" clip-rule="evenodd" d="M10.1158 18V9.7894H13.0074L13.4403 6.58953H10.1158V4.54655C10.1158 3.62011 10.3857 2.9888 11.7796 2.9888L13.5574 2.988V0.126072C13.2498 0.0871465 12.1946 0 10.9668 0C8.40365 0 6.64893 1.49118 6.64893 4.22974V6.58953H3.75V9.7894H6.64893V18H10.1158Z" fill="#333333"></path>
</symbol>
<symbol id="icon-instagram" viewBox="0 0 18 18">
<path d="M13.2353 0H4.76471C2.13323 0 0 2.13323 0 4.76471V13.2353C0 15.8668 2.13323 18 4.76471 18H13.2353C14.499 18 15.7109 17.498 16.6045 16.6045C17.498 15.7109 18 14.499 18 13.2353V4.76471C18 2.13323 15.8668 0 13.2353 0ZM16.9412 13.2353C16.9412 15.282 15.282 16.9412 13.2353 16.9412H4.76471C2.718 16.9412 1.05882 15.282 1.05882 13.2353V4.76471C1.05882 2.718 2.718 1.05882 4.76471 1.05882H13.2353C15.282 1.05882 16.9412 2.718 16.9412 4.76471V13.2353Z" fill="#333333"></path>
<path d="M9.00092 4.76465C6.66183 4.76465 4.76562 6.66085 4.76562 8.99994C4.76562 11.339 6.66183 13.2352 9.00092 13.2352C11.34 13.2352 13.2362 11.339 13.2362 8.99994C13.2362 7.87667 12.79 6.79941 11.9957 6.00514C11.2015 5.21087 10.1242 4.76465 9.00092 4.76465ZM9.00092 12.1764C7.2466 12.1764 5.82445 10.7543 5.82445 8.99994C5.82445 7.24563 7.2466 5.82347 9.00092 5.82347C10.7552 5.82347 12.1774 7.24563 12.1774 8.99994C12.1774 9.8424 11.8427 10.6503 11.247 11.246C10.6513 11.8418 9.84337 12.1764 9.00092 12.1764Z" fill="#333333"></path>
<path d="M13.7639 3.17627C13.1791 3.17627 12.7051 3.65032 12.7051 4.23509C12.7051 4.81987 13.1791 5.29392 13.7639 5.29392C14.3487 5.29392 14.8227 4.81987 14.8227 4.23509C14.8227 3.65032 14.3487 3.17627 13.7639 3.17627Z" fill="#333333"></path>
</symbol>
<symbol id="icon-twitter" viewBox="0 0 18 18">
<path fill-rule="evenodd" clip-rule="evenodd" d="M17.5111 3.93889C16.8667 4.21667 16.1667 4.41667 15.4445 4.49445C16.1889 4.05 16.7556 3.35 17.0222 2.51667C16.3334 2.92778 15.5556 3.22778 14.7445 3.38333C14.0889 2.68333 13.1556 2.25 12.1222 2.25C10.1333 2.25 8.53334 3.86111 8.53334 5.83889C8.53334 6.11667 8.56668 6.39445 8.62223 6.66112C5.64445 6.50556 2.98889 5.08334 1.22222 2.90556C0.911112 3.43889 0.733334 4.05 0.733334 4.71667C0.733334 5.96112 1.36667 7.06112 2.33334 7.70556C1.74445 7.68334 1.18889 7.51667 0.711112 7.25001C0.711112 7.26112 0.711112 7.28334 0.711112 7.29445C0.711112 9.0389 1.94445 10.4833 3.58889 10.8167C3.28889 10.8945 2.96667 10.9389 2.64445 10.9389C2.41111 10.9389 2.18889 10.9167 1.96667 10.8833C2.42223 12.3056 3.74445 13.3389 5.32223 13.3722C4.08889 14.3389 2.54445 14.9056 0.866668 14.9056C0.566667 14.9056 0.288889 14.8945 0 14.8611C1.58889 15.8833 3.47778 16.4722 5.51112 16.4722C12.1111 16.4722 15.7222 11.0056 15.7222 6.26112C15.7222 6.10556 15.7222 5.95 15.7111 5.79445C16.4111 5.28334 17.0222 4.65 17.5111 3.93889Z" fill="#333333"></path>
</symbol>
<symbol id="icon-circle-arrow" viewBox="0 0 30 30">
<circle cx="15" cy="15" r="15" fill="#F2F2F2"></circle>
<path d="M12.3769 9.79031C12.3767 9.75786 12.3875 9.72609 12.4081 9.69898C12.4287 9.67188 12.4581 9.65067 12.4926 9.63801C12.527 9.62536 12.5651 9.62183 12.6019 9.62788C12.6386 9.63392 12.6725 9.64927 12.6993 9.67198L18.5569 14.6023C18.5769 14.6168 18.5933 14.6347 18.605 14.655C18.6166 14.6752 18.6234 14.6973 18.6247 14.7199C18.6261 14.7425 18.6221 14.7651 18.6129 14.7863C18.6037 14.8075 18.5895 14.8268 18.5713 14.843C18.5531 14.8593 18.5313 14.8721 18.5071 14.8806C18.4829 14.8892 18.457 14.8933 18.4309 14.8928C18.4048 14.8922 18.3791 14.887 18.3554 14.8775C18.3317 14.8679 18.3106 14.8543 18.2933 14.8373L12.4357 9.90699C12.4174 9.89191 12.4028 9.87382 12.3927 9.85378C12.3826 9.83375 12.3773 9.81217 12.3769 9.79031Z" fill="black"></path>
<path d="M12.3768 19.6509C12.3767 19.6289 12.3817 19.6071 12.3914 19.5867C12.4012 19.5664 12.4156 19.548 12.4337 19.5326L18.2913 14.6023C18.3086 14.5853 18.3298 14.5716 18.3534 14.5621C18.3771 14.5525 18.4028 14.5473 18.4289 14.5468C18.455 14.5463 18.481 14.5504 18.5051 14.559C18.5293 14.5675 18.5512 14.5803 18.5694 14.5965C18.5876 14.6128 18.6017 14.6321 18.6109 14.6533C18.6201 14.6745 18.6242 14.6971 18.6228 14.7197C18.6214 14.7423 18.6147 14.7644 18.603 14.7846C18.5913 14.8049 18.575 14.8228 18.5549 14.8373L12.6973 19.7676C12.6706 19.7903 12.6367 19.8057 12.5999 19.8117C12.5631 19.8177 12.5251 19.8142 12.4906 19.8016C12.4561 19.7889 12.4268 19.7677 12.4062 19.7406C12.3856 19.7135 12.3747 19.6817 12.3749 19.6493L12.3768 19.6509Z" fill="black"></path>
</symbol>
<symbol id="icon-location" viewBox="0 0 11 14">
<path fill-rule="evenodd" clip-rule="evenodd" d="M0.333984 4.9C0.333984 2.191 2.52498 0 5.23398 0C7.94299 0 10.134 2.191 10.134 4.9C10.134 8.575 5.23398 14 5.23398 14C5.23398 14 0.333984 8.575 0.333984 4.9ZM3.48416 4.90001C3.48416 5.86601 4.26816 6.65001 5.23416 6.65001C6.20016 6.65001 6.98416 5.86601 6.98416 4.90001C6.98416 3.93401 6.20016 3.15001 5.23416 3.15001C4.26816 3.15001 3.48416 3.93401 3.48416 4.90001Z" fill="#333333"></path>
</symbol>
<symbol id="icon-email" viewBox="0 0 14 10">
<path d="M0.816311 0.333252L7 5.31114L13.1837 0.333252H0.816311ZM0 0.984167V9.55276H14V0.984167L7.32012 6.36222C7.22927 6.43494 7.11637 6.47457 7 6.47457C6.88363 6.47457 6.77073 6.43494 6.67988 6.36222L0 0.984167Z" fill="#333333"></path>
</symbol>
<symbol id="icon-phone" viewBox="0 0 14 14">
<path d="M2.81556 6.05889C3.93556 8.26 5.74 10.0567 7.94111 11.1844L9.65222 9.47333C9.86222 9.26333 10.1733 9.19333 10.4456 9.28667C11.3167 9.57444 12.2578 9.73 13.2222 9.73C13.65 9.73 14 10.08 14 10.5078V13.2222C14 13.65 13.65 14 13.2222 14C5.91889 14 0 8.08111 0 0.777778C0 0.35 0.35 0 0.777778 0H3.5C3.92778 0 4.27778 0.35 4.27778 0.777778C4.27778 1.75 4.43333 2.68333 4.72111 3.55444C4.80667 3.82667 4.74444 4.13 4.52667 4.34778L2.81556 6.05889Z" fill="#333333"></path>
</symbol>
<symbol id="icon-pencil" viewBox="0 0 32 32">
<path d="M27 0c2.761 0 5 2.239 5 5 0 1.126-0.372 2.164-1 3l-2 2-7-7 2-2c0.836-0.628 1.874-1 3-1zM2 23l-2 9 9-2 18.5-18.5-7-7-18.5 18.5zM22.362 11.362l-14 14-1.724-1.724 14-14 1.724 1.724z" fill="#333333"></path>
</symbol>
<symbol id="icon-bin" viewBox="0 0 32 32">
<path d="M4 10v20c0 1.1 0.9 2 2 2h18c1.1 0 2-0.9 2-2v-20h-22zM10 28h-2v-14h2v14zM14 28h-2v-14h2v14zM18 28h-2v-14h2v14zM22 28h-2v-14h2v14z"></path>
<path d="M26.5 4h-6.5v-2.5c0-0.825-0.675-1.5-1.5-1.5h-7c-0.825 0-1.5 0.675-1.5 1.5v2.5h-6.5c-0.825 0-1.5 0.675-1.5 1.5v2.5h26v-2.5c0-0.825-0.675-1.5-1.5-1.5zM18 4h-6v-1.975h6v1.975z" fill="#333333"></path>
</symbol>
<symbol id="icon-eye" viewBox="0 0 32 32">
<path d="M16 6c-6.979 0-13.028 4.064-16 10 2.972 5.936 9.021 10 16 10s13.027-4.064 16-10c-2.972-5.936-9.021-10-16-10zM23.889 11.303c1.88 1.199 3.473 2.805 4.67 4.697-1.197 1.891-2.79 3.498-4.67 4.697-2.362 1.507-5.090 2.303-7.889 2.303s-5.527-0.796-7.889-2.303c-1.88-1.199-3.473-2.805-4.67-4.697 1.197-1.891 2.79-3.498 4.67-4.697 0.122-0.078 0.246-0.154 0.371-0.228-0.311 0.854-0.482 1.776-0.482 2.737 0 4.418 3.582 8 8 8s8-3.582 8-8c0-0.962-0.17-1.883-0.482-2.737 0.124 0.074 0.248 0.15 0.371 0.228v0zM16 13c0 1.657-1.343 3-3 3s-3-1.343-3-3 1.343-3 3-3 3 1.343 3 3z" fill="#333333"></path>
</symbol>
<symbol id="icon-clock" viewBox="0 0 32 32">
<path d="M20.586 23.414l-6.586-6.586v-8.828h4v7.172l5.414 5.414zM16 0c-8.837 0-16 7.163-16 16s7.163 16 16 16 16-7.163 16-16-7.163-16-16-16zM16 28c-6.627 0-12-5.373-12-12s5.373-12 12-12c6.627 0 12 5.373 12 12s-5.373 12-12 12z"></path>
</symbol>
<symbol id="icon-cog" viewBox="0 0 32 32">
<path d="M29.181 19.070c-1.679-2.908-0.669-6.634 2.255-8.328l-3.145-5.447c-0.898 0.527-1.943 0.829-3.058 0.829-3.361 0-6.085-2.742-6.085-6.125h-6.289c0.008 1.044-0.252 2.103-0.811 3.070-1.679 2.908-5.411 3.897-8.339 2.211l-3.144 5.447c0.905 0.515 1.689 1.268 2.246 2.234 1.676 2.903 0.672 6.623-2.241 8.319l3.145 5.447c0.895-0.522 1.935-0.82 3.044-0.82 3.35 0 6.067 2.725 6.084 6.092h6.289c-0.003-1.034 0.259-2.080 0.811-3.038 1.676-2.903 5.399-3.894 8.325-2.219l3.145-5.447c-0.899-0.515-1.678-1.266-2.232-2.226zM16 22.479c-3.578 0-6.479-2.901-6.479-6.479s2.901-6.479 6.479-6.479c3.578 0 6.479 2.901 6.479 6.479s-2.901 6.479-6.479 6.479z"></path>
</symbol>
</defs>
</svg>
